<svg width="10" height="16" viewBox="0 0 10 16" fill="none" xmlns="http://www.w3.org/2000/svg">
<line x1="0.5" y1="3" x2="0.5" y2="2" stroke="black"/>
<line x1="1.5" y1="1" x2="1.5" y2="2" stroke="black"/>
<line x1="8" y1="1.5" x2="9" y2="1.5" stroke="black"/>
<line x1="9" y1="2.5" x2="10" y2="2.5" stroke="black"/>
<path d="M9 3.5H10" stroke="black"/>
<path d="M8 12.5H9" stroke="black"/>
<path d="M1 12.5H2" stroke="black"/>
<path d="M2 13.5H3" stroke="black"/>
<path d="M7 13.5H8" stroke="black"/>
<path d="M6 14.5H7" stroke="black"/>
<path d="M3 14.5H4" stroke="black"/>
<path d="M4 15.5H5" stroke="black"/>
<path d="M4 15.5H5" stroke="black"/>
<path d="M5 15.5H6" stroke="black"/>
<path d="M5 14.5H6" stroke="black"/>
<path d="M4 14.5H5" stroke="black"/>
<path d="M1 10.5H2" stroke="black"/>
<path d="M2 10H3" stroke="black"/>
<path d="M3 10.5H4" stroke="black"/>
<path d="M4 10H5" stroke="black"/>
<path d="M5 10.5H6" stroke="black"/>
<path d="M6 10H7" stroke="black"/>
<path d="M7 10.5H8" stroke="black"/>
<path d="M8 10H9" stroke="black"/>
<line x1="0.5" y1="4" x2="0.5" y2="12" stroke="black"/>
<line x1="9.5" y1="4" x2="9.5" y2="12" stroke="black"/>
<line y1="3.5" x2="9" y2="3.5" stroke="black"/>
<line x1="2.0014" y1="0.500002" x2="8.00256" y2="0.516769" stroke="black"/>
</svg>
