<svg width="14" height="12" viewBox="0 0 14 12" fill="none" xmlns="http://www.w3.org/2000/svg">
<line x1="7" y1="0.5" x2="9" y2="0.5" stroke="black"/>
<line x1="9" y1="1.5" x2="10" y2="1.5" stroke="black"/>
<line x1="10" y1="2.5" x2="11" y2="2.5" stroke="black"/>
<line x1="11" y1="3.5" x2="12" y2="3.5" stroke="black"/>
<line x1="12" y1="4.5" x2="13" y2="4.5" stroke="black"/>
<line x1="13" y1="5.5" x2="14" y2="5.5" stroke="black"/>
<line x1="13" y1="6.5" x2="14" y2="6.5" stroke="black"/>
<line x1="12" y1="7.5" x2="13" y2="7.5" stroke="black"/>
<line x1="11" y1="8.5" x2="12" y2="8.5" stroke="black"/>
<line x1="9" y1="9.5" x2="11" y2="9.5" stroke="black"/>
<line x1="9" y1="10.5" x2="10" y2="10.5" stroke="black"/>
<line x1="6" y1="1.5" x2="9" y2="1.5" stroke="black"/>
<line x1="5" y1="2.5" x2="10" y2="2.5" stroke="black"/>
<line x1="4" y1="3.5" x2="5" y2="3.5" stroke="black"/>
<line x1="4" y1="5.5" x2="13" y2="5.5" stroke="black"/>
<line x1="5" y1="6.5" x2="13" y2="6.5" stroke="black"/>
<line x1="6" y1="7.5" x2="12" y2="7.5" stroke="black"/>
<line x1="7" y1="8.5" x2="11" y2="8.5" stroke="black"/>
<line x1="8" y1="9.5" x2="9" y2="9.5" stroke="black"/>
<line x1="4" y1="3.5" x2="11" y2="3.5" stroke="black"/>
<line x1="3" y1="4.5" x2="13" y2="4.5" stroke="black"/>
<line x1="2" y1="5.5" x2="3" y2="5.5" stroke="black"/>
<line x1="1" y1="6.5" x2="2" y2="6.5" stroke="black"/>
<line y1="7.5" x2="1" y2="7.5" stroke="black"/>
<line y1="7.5" x2="1" y2="7.5" stroke="black"/>
<line y1="8.5" x2="1" y2="8.5" stroke="black"/>
<line y1="7.5" x2="1" y2="7.5" stroke="black"/>
<line x1="1" y1="9.5" x2="2" y2="9.5" stroke="black"/>
<line x1="2" y1="10.5" x2="3" y2="10.5" stroke="black"/>
<line x1="3" y1="11.5" x2="14" y2="11.5" stroke="black"/>
<line x1="8" y1="11.5" x2="9" y2="11.5" stroke="black"/>
</svg>
